<svg width="1979" height="1772" viewBox="0 0 1979 1772" fill="none" xmlns="http://www.w3.org/2000/svg">
<path d="M1875.41 1368.57C1743.85 1677.95 1512.26 1809.26 1180.66 1762.49C849.058 1715.72 535.476 1561.03 239.917 1298.42C-55.643 1035.81 -87.6299 722.603 197.117 440.203C481.863 157.804 819.239 39.9271 1194.18 5.56553C1569.12 -28.7961 1786.38 93.6474 1898.12 437.204C2009.85 780.76 2006.97 1059.19 1875.41 1368.57Z" fill="white"/>
<path d="M1685.94 1258.65C1634.36 1379.77 1563.2 1466 1472.47 1517.37C1381.75 1568.74 1271.4 1585.3 1141.4 1566.99C881.356 1530.36 635.423 1409.21 403.601 1203.5C287.716 1100.67 228.793 995.976 226.676 889.411C224.559 782.845 279.247 674.275 390.895 563.693C614.228 342.494 867.934 207.956 1152.02 160.057C1294.04 136.112 1411.44 151.792 1504.28 207.03C1597.11 262.268 1665.45 357.104 1709.25 491.617C1796.88 760.693 1789.1 1016.36 1685.94 1258.65Z" fill="white" stroke="#F0F1F5"/>
<path d="M1504.06 1153.93C1466.12 1243.1 1413.78 1306.56 1347.06 1344.37C1280.34 1382.18 1199.18 1394.37 1103.56 1380.89C912.258 1353.93 731.336 1264.74 560.788 1113.28C475.541 1037.58 432.217 960.518 430.66 882.103C429.103 803.685 469.314 723.775 551.446 642.364C715.745 479.507 902.386 380.458 1111.37 345.194C1215.84 327.565 1302.19 339.112 1370.46 379.764C1438.72 420.416 1488.99 490.216 1521.21 589.24C1585.67 787.34 1579.95 975.562 1504.06 1153.93Z" fill="white" stroke="#F0F1F5"/>
<path d="M1364.55 1073.36C1309.6 1202.55 1212.87 1257.39 1074.36 1237.86C935.857 1218.33 804.88 1153.73 681.429 1044.07C557.979 934.406 555.721 820.612 674.655 702.687C793.588 584.762 928.706 513.03 1080.01 487.492C1231.31 461.954 1330.3 520.917 1376.97 664.38C1423.64 807.843 1419.5 944.171 1364.55 1073.36Z" fill="#D1D8E0" fill-opacity="0.2"/>
</svg>
