<svg width="1979" height="1772" fill="none" xmlns="http://www.w3.org/2000/svg"><path d="M1875.41 1368.57c-131.56 309.38-363.15 440.69-694.75 393.92-331.602-46.77-645.184-201.46-940.743-464.07-295.56-262.61-327.547-575.817-42.8-858.217C481.863 157.804 819.239 39.927 1194.18 5.566c374.94-34.362 592.2 88.081 703.94 431.638 111.73 343.556 108.85 621.986-22.71 931.366z" fill="#fff"/><path d="M1685.94 1258.65c-51.58 121.12-122.74 207.35-213.47 258.72-90.72 51.37-201.07 67.93-331.07 49.62-260.044-36.63-505.977-157.78-737.799-363.49-115.885-102.83-174.808-207.524-176.925-314.089-2.117-106.566 52.571-215.136 164.219-325.718 223.333-221.199 477.039-355.737 761.125-403.636 142.02-23.945 259.42-8.265 352.26 46.973 92.83 55.238 161.17 150.074 204.97 284.587 87.63 269.076 79.85 524.743-23.31 767.033z" fill="#fff" stroke="#F0F1F5"/><path d="M1504.06 1153.93c-37.94 89.17-90.28 152.63-157 190.44s-147.88 50-243.5 36.52c-191.302-26.96-372.224-116.15-542.772-267.61-85.247-75.7-128.571-152.762-130.128-231.177-1.557-78.418 38.654-158.328 120.786-239.739 164.299-162.857 350.94-261.906 559.924-297.17 104.47-17.629 190.82-6.082 259.09 34.57 68.26 40.652 118.53 110.452 150.75 209.476 64.46 198.1 58.74 386.322-17.15 564.69z" fill="#fff" stroke="#F0F1F5"/><path d="M1364.55 1073.36c-54.95 129.19-151.68 184.03-290.19 164.5-138.503-19.53-269.48-84.13-392.931-193.79-123.45-109.664-125.708-223.458-6.774-341.383C793.588 584.762 928.706 513.03 1080.01 487.492c151.3-25.538 250.29 33.425 296.96 176.888 46.67 143.463 42.53 279.791-12.42 408.98z" fill="#D1D8E0" fill-opacity=".2"/></svg>