<svg width="65" height="65" xmlns="http://www.w3.org/2000/svg" viewBox="0 0 65 65">
<style type="text/css">
	.st0{fill:#313131;}
	.st1{fill:#FFFFFF;}
</style>
<g>
	<path class="st0" d="M50.9,14.6c-10.2-10.2-26.5-10.2-36.7,0C4,24.8,3.9,41.1,14.1,51.4c10.2,10.2,26.5,10.2,36.7,0
		C61,41.2,61,24.8,50.9,14.6z M53,22.7c-0.7,1.5-2.6,5.3-5,8.9c-4,6.3-6.8,8.3-7.9,8c-0.2-0.1-0.7-0.2-0.8-1.5
		c-0.2-1.9,0.4-4.5,0.4-6c0-0.9-0.3-2.5-2.5-3.4c-1.1-0.4-2.4-0.5-3.7-0.7c-0.8-0.1-2.2-0.2-2.5-0.4c-0.4-0.3-0.4-0.5-0.4-0.6
		c-0.1-0.7,1-2.1,1.7-3c0.8-1,1.6-2,1.8-3c0.2-1,0.2-2.8-2.2-7.9c-0.5-1.1-1.1-2.2-1.5-3C40,9.2,48.9,14.5,53,22.7z M15.5,17.6
		c1.8,0.9,4.5,2.6,4.1,4.5c-0.3,1.4-1.1,2.2-2,3.3c-1.3,1.5-2.9,3.3-2.9,6.8c0,2.2-1.8,4.6-4.5,6.2C8.5,31.2,10.3,23.4,15.5,17.6z
		 M32.5,55.9c-9.7,0-18.1-6.1-21.4-14.6c4-2.1,6.7-5.6,6.7-9.1c0-2.3,1-3.4,2.2-4.8c1.1-1.2,2.2-2.5,2.7-4.7
		c0.6-3.2-1.9-5.7-4.8-7.3c2.6-2.2,5.8-3.8,9.2-4.7c0.5,0.9,1.3,2.3,2,3.8c2.2,4.6,2,5.8,2,6c-0.1,0.3-0.7,1.2-1.2,1.8
		c-1.2,1.6-2.6,3.3-2.3,5.3c0.1,1,0.7,1.9,1.6,2.6c1.7,1.3,5.1,0.8,7,1.5c0.6,0.2,0.6,0.4,0.6,0.5c0,1.2-0.6,4.1-0.3,6.4
		c0.4,2.8,1.9,3.7,3.1,4c0.3,0.1,0.6,0.1,1,0.1c2.9,0,6.2-3,10.2-9.5c1.5-2.4,2.9-4.9,3.9-6.8C58.9,41.2,47.8,55.9,32.5,55.9z"/>
	<path class="st0" d="M30.7,40.9c-2-0.7-4.9-0.9-6.5,0c-1.9,1.1-3.4,5.3-2.2,7.7c0.8,1.7,4.2,3.1,6.1,3.1c1.1,0,2.5-0.2,3.4-0.7
		c3-1.5,3-5.6,2.2-7.8C33.3,42.3,32.3,41.5,30.7,40.9z M30.2,48.4c-0.4,0.2-1.4,0.4-2.5,0.3c-1.2-0.1-2.8-1.3-2.9-1.5
		c-0.1-0.3-0.1-1.1,0.1-2c0.3-1,0.7-1.6,0.9-1.7c0.2-0.1,1.2-0.3,2.7-0.1c1.5,0.3,2.2,0.7,2.4,0.9C31.2,45.2,31.7,47.6,30.2,48.4z"
		/>
	<path class="st1" d="M40.5,5.5c0,3-2.5,5.5-5.5,5.5s-5.5-2.5-5.5-5.5S32,0,35,0S40.5,2.5,40.5,5.5z"/>
	<circle class="st0" cx="35" cy="5.5" r="5.5"/>
	<circle class="st0" cx="35" cy="5.5" r="2.5"/>
	<circle class="st1" cx="35" cy="5.5" r="2.5"/>
	<path class="st0" d="M33.5,10.5C33.5,9.7,34.2,9,35,9s1.5,0.7,1.5,1.5v4c0,0.8-0.7,1.5-1.5,1.5s-1.5-0.7-1.5-1.5V10.5z"/>
	<path class="st1" d="M46.5,22.5c0,3-2.5,5.5-5.5,5.5s-5.5-2.5-5.5-5.5S38,17,41,17S46.5,19.5,46.5,22.5z"/>
	<path class="st0" d="M41,25c1.4,0,2.5-1.1,2.5-2.5S42.4,20,41,20s-2.5,1.1-2.5,2.5S39.6,25,41,25z M41,28c3,0,5.5-2.5,5.5-5.5
		S44,17,41,17s-5.5,2.5-5.5,5.5S38,28,41,28z"/>
	<path class="st0" d="M39.5,27.5c0-0.8,0.7-1.5,1.5-1.5s1.5,0.7,1.5,1.5v4c0,0.8-0.7,1.5-1.5,1.5s-1.5-0.7-1.5-1.5V27.5z"/>
	<path class="st1" d="M54.5,13.5c0,3-2.5,5.5-5.5,5.5s-5.5-2.5-5.5-5.5S46,8,49,8S54.5,10.5,54.5,13.5z"/>
	<path class="st0" d="M49,16c1.4,0,2.5-1.1,2.5-2.5S50.4,11,49,11s-2.5,1.1-2.5,2.5S47.6,16,49,16z M49,19c3,0,5.5-2.5,5.5-5.5
		S52,8,49,8s-5.5,2.5-5.5,5.5S46,19,49,19z"/>
	<path class="st0" d="M47.5,18.5c0-0.8,0.7-1.5,1.5-1.5s1.5,0.7,1.5,1.5v4c0,0.8-0.7,1.5-1.5,1.5s-1.5-0.7-1.5-1.5V18.5z"/>
	<circle class="st1" cx="49" cy="13.5" r="2.5"/>
	<circle class="st1" cx="41" cy="22.5" r="2.5"/>
</g>
</svg>
