<svg width="65" height="65" xmlns="http://www.w3.org/2000/svg" viewBox="0 0 65 65">
<style type="text/css">
	.st0{fill:#313131;}
	.st1{fill:none;stroke:#313131;stroke-width:3;}
</style>
<g>
	<path class="st0" d="M52,54.8c0.6,0.6,0.6,1.6,0,2.2c-0.3,0.3-0.7,0.5-1.1,0.5s-0.8-0.2-1.1-0.5l-2.6-2.7c-1.1,0.6-2.3,1-3.6,1
		c-3.9,0-7-3.2-7-7.1c0-3.9,3.2-7.1,7-7.1c3.9,0,7,3.2,7,7.1c0,1.4-0.4,2.8-1.2,3.9L52,54.8z M43.6,52.2c2.2,0,3.9-1.8,3.9-3.9
		c0-2.2-1.8-3.9-3.9-3.9s-3.9,1.8-3.9,3.9C39.7,50.5,41.4,52.2,43.6,52.2z M46.2,7.5H18.7c-3.4,0-6.2,2.8-6.2,6.3v37.4
		c0,3.5,2.8,6.3,6.2,6.3h16.1c0.9,0,1.6-0.7,1.6-1.6c0-0.9-0.7-1.6-1.6-1.6H18.7c-1.7,0-3.1-1.4-3.1-3.1V13.8c0-1.7,1.4-3.1,3.1-3.1
		h27.5c1.7,0,3.1,1.4,3.1,3.1v25.3c0,0.9,0.7,1.6,1.6,1.6c0.9,0,1.6-0.7,1.6-1.6V13.8C52.5,10.3,49.7,7.5,46.2,7.5z"/>
	<circle class="st1" cx="25" cy="19" r="3"/>
	<circle class="st1" cx="25" cy="32" r="3"/>
	<circle class="st1" cx="25" cy="45" r="3"/>
	<path class="st0" d="M34,15.5h10c0.8,0,1.5,0.7,1.5,1.5l0,0c0,0.8-0.7,1.5-1.5,1.5H34c-0.8,0-1.5-0.7-1.5-1.5l0,0
		C32.5,16.2,33.2,15.5,34,15.5z"/>
	<path class="st0" d="M34,28.5h10c0.8,0,1.5,0.7,1.5,1.5l0,0c0,0.8-0.7,1.5-1.5,1.5H34c-0.8,0-1.5-0.7-1.5-1.5l0,0
		C32.5,29.2,33.2,28.5,34,28.5z"/>
	<path class="st0" d="M34,19.5h4c0.8,0,1.5,0.7,1.5,1.5l0,0c0,0.8-0.7,1.5-1.5,1.5h-4c-0.8,0-1.5-0.7-1.5-1.5l0,0
		C32.5,20.2,33.2,19.5,34,19.5z"/>
	<path class="st0" d="M34,32.5h4c0.8,0,1.5,0.7,1.5,1.5l0,0c0,0.8-0.7,1.5-1.5,1.5h-4c-0.8,0-1.5-0.7-1.5-1.5l0,0
		C32.5,33.2,33.2,32.5,34,32.5z"/>
	<path class="st0" d="M34,41.5h1c0.8,0,1.5,0.7,1.5,1.5l0,0c0,0.8-0.7,1.5-1.5,1.5h-1c-0.8,0-1.5-0.7-1.5-1.5l0,0
		C32.5,42.2,33.2,41.5,34,41.5z"/>
	<path class="st0" d="M34,45.5L34,45.5c0.8,0,1.5,0.7,1.5,1.5l0,0c0,0.8-0.7,1.5-1.5,1.5l0,0c-0.8,0-1.5-0.7-1.5-1.5l0,0
		C32.5,46.2,33.2,45.5,34,45.5z"/>
</g>
</svg>
