<svg width="65" height="65" xmlns="http://www.w3.org/2000/svg"><style>.st0{fill:#313131}.st1{fill:none;stroke:#313131;stroke-width:3}</style><path class="st0" d="M52 54.8c.6.6.6 1.6 0 2.2-.3.3-.7.5-1.1.5s-.8-.2-1.1-.5l-2.6-2.7c-1.1.6-2.3 1-3.6 1-3.9 0-7-3.2-7-7.1 0-3.9 3.2-7.1 7-7.1 3.9 0 7 3.2 7 7.1 0 1.4-.4 2.8-1.2 3.9l2.6 2.7zm-8.4-2.6c2.2 0 3.9-1.8 3.9-3.9 0-2.2-1.8-3.9-3.9-3.9s-3.9 1.8-3.9 3.9c0 2.2 1.7 3.9 3.9 3.9zm2.6-44.7H18.7c-3.4 0-6.2 2.8-6.2 6.3v37.4c0 3.5 2.8 6.3 6.2 6.3h16.1c.9 0 1.6-.7 1.6-1.6 0-.9-.7-1.6-1.6-1.6H18.7c-1.7 0-3.1-1.4-3.1-3.1V13.8c0-1.7 1.4-3.1 3.1-3.1h27.5c1.7 0 3.1 1.4 3.1 3.1v25.3c0 .9.7 1.6 1.6 1.6.9 0 1.6-.7 1.6-1.6V13.8c0-3.5-2.8-6.3-6.3-6.3z"/><circle class="st1" cx="25" cy="19" r="3"/><circle class="st1" cx="25" cy="32" r="3"/><circle class="st1" cx="25" cy="45" r="3"/><path class="st0" d="M34 15.5h10c.8 0 1.5.7 1.5 1.5s-.7 1.5-1.5 1.5H34c-.8 0-1.5-.7-1.5-1.5s.7-1.5 1.5-1.5zm0 13h10c.8 0 1.5.7 1.5 1.5s-.7 1.5-1.5 1.5H34c-.8 0-1.5-.7-1.5-1.5s.7-1.5 1.5-1.5zm0-9h4c.8 0 1.5.7 1.5 1.5s-.7 1.5-1.5 1.5h-4c-.8 0-1.5-.7-1.5-1.5s.7-1.5 1.5-1.5zm0 13h4c.8 0 1.5.7 1.5 1.5s-.7 1.5-1.5 1.5h-4c-.8 0-1.5-.7-1.5-1.5s.7-1.5 1.5-1.5zm0 9h1c.8 0 1.5.7 1.5 1.5s-.7 1.5-1.5 1.5h-1c-.8 0-1.5-.7-1.5-1.5s.7-1.5 1.5-1.5zm0 4c.8 0 1.5.7 1.5 1.5s-.7 1.5-1.5 1.5-1.5-.7-1.5-1.5.7-1.5 1.5-1.5z"/></svg>