<svg width="65" height="65" xmlns="http://www.w3.org/2000/svg"><style>.st0{fill:#313131}.st1{fill:#fff}</style><path class="st0" d="M50.9 14.6c-10.2-10.2-26.5-10.2-36.7 0C4 24.8 3.9 41.1 14.1 51.4c10.2 10.2 26.5 10.2 36.7 0C61 41.2 61 24.8 50.9 14.6zm2.1 8.1c-.7 1.5-2.6 5.3-5 8.9-4 6.3-6.8 8.3-7.9 8-.2-.1-.7-.2-.8-1.5-.2-1.9.4-4.5.4-6 0-.9-.3-2.5-2.5-3.4-1.1-.4-2.4-.5-3.7-.7-.8-.1-2.2-.2-2.5-.4-.4-.3-.4-.5-.4-.6-.1-.7 1-2.1 1.7-3 .8-1 1.6-2 1.8-3 .2-1 .2-2.8-2.2-7.9-.5-1.1-1.1-2.2-1.5-3C40 9.2 48.9 14.5 53 22.7zm-37.5-5.1c1.8.9 4.5 2.6 4.1 4.5-.3 1.4-1.1 2.2-2 3.3-1.3 1.5-2.9 3.3-2.9 6.8 0 2.2-1.8 4.6-4.5 6.2-1.7-7.2.1-15 5.3-20.8zm17 38.3c-9.7 0-18.1-6.1-21.4-14.6 4-2.1 6.7-5.6 6.7-9.1 0-2.3 1-3.4 2.2-4.8 1.1-1.2 2.2-2.5 2.7-4.7.6-3.2-1.9-5.7-4.8-7.3 2.6-2.2 5.8-3.8 9.2-4.7.5.9 1.3 2.3 2 3.8 2.2 4.6 2 5.8 2 6-.1.3-.7 1.2-1.2 1.8-1.2 1.6-2.6 3.3-2.3 5.3.1 1 .7 1.9 1.6 2.6 1.7 1.3 5.1.8 7 1.5.6.2.6.4.6.5 0 1.2-.6 4.1-.3 6.4.4 2.8 1.9 3.7 3.1 4 .3.1.6.1 1 .1 2.9 0 6.2-3 10.2-9.5 1.5-2.4 2.9-4.9 3.9-6.8 4.2 14.8-6.9 29.5-22.2 29.5z"/><path class="st0" d="M30.7 40.9c-2-.7-4.9-.9-6.5 0-1.9 1.1-3.4 5.3-2.2 7.7.8 1.7 4.2 3.1 6.1 3.1 1.1 0 2.5-.2 3.4-.7 3-1.5 3-5.6 2.2-7.8-.4-.9-1.4-1.7-3-2.3zm-.5 7.5c-.4.2-1.4.4-2.5.3-1.2-.1-2.8-1.3-2.9-1.5-.1-.3-.1-1.1.1-2 .3-1 .7-1.6.9-1.7.2-.1 1.2-.3 2.7-.1 1.5.3 2.2.7 2.4.9.3.9.8 3.3-.7 4.1z"/><path class="st1" d="M40.5 5.5c0 3-2.5 5.5-5.5 5.5s-5.5-2.5-5.5-5.5S32 0 35 0s5.5 2.5 5.5 5.5z"/><circle class="st0" cx="35" cy="5.5" r="5.5"/><circle class="st0" cx="35" cy="5.5" r="2.5"/><circle class="st1" cx="35" cy="5.5" r="2.5"/><path class="st0" d="M33.5 10.5c0-.8.7-1.5 1.5-1.5s1.5.7 1.5 1.5v4c0 .8-.7 1.5-1.5 1.5s-1.5-.7-1.5-1.5v-4z"/><path class="st1" d="M46.5 22.5c0 3-2.5 5.5-5.5 5.5s-5.5-2.5-5.5-5.5S38 17 41 17s5.5 2.5 5.5 5.5z"/><path class="st0" d="M41 25c1.4 0 2.5-1.1 2.5-2.5S42.4 20 41 20s-2.5 1.1-2.5 2.5S39.6 25 41 25zm0 3c3 0 5.5-2.5 5.5-5.5S44 17 41 17s-5.5 2.5-5.5 5.5S38 28 41 28z"/><path class="st0" d="M39.5 27.5c0-.8.7-1.5 1.5-1.5s1.5.7 1.5 1.5v4c0 .8-.7 1.5-1.5 1.5s-1.5-.7-1.5-1.5v-4z"/><path class="st1" d="M54.5 13.5c0 3-2.5 5.5-5.5 5.5s-5.5-2.5-5.5-5.5S46 8 49 8s5.5 2.5 5.5 5.5z"/><path class="st0" d="M49 16c1.4 0 2.5-1.1 2.5-2.5S50.4 11 49 11s-2.5 1.1-2.5 2.5S47.6 16 49 16zm0 3c3 0 5.5-2.5 5.5-5.5S52 8 49 8s-5.5 2.5-5.5 5.5S46 19 49 19z"/><path class="st0" d="M47.5 18.5c0-.8.7-1.5 1.5-1.5s1.5.7 1.5 1.5v4c0 .8-.7 1.5-1.5 1.5s-1.5-.7-1.5-1.5v-4z"/><circle class="st1" cx="49" cy="13.5" r="2.5"/><circle class="st1" cx="41" cy="22.5" r="2.5"/></svg>