<svg width="65" height="65" xmlns="http://www.w3.org/2000/svg"><style>.st0{fill:none;stroke:#313131;stroke-width:3;stroke-linecap:round;stroke-linejoin:round}.st4{fill:#313131}</style><path class="st0" d="M58.8 50.2c0 1.2-.3 2.4-.8 3.4-.6 1.3-1.6 2.4-2.8 3.1-1.2.8-2.6 1.2-4 1.2-1.2 0-2.4-.3-3.4-.8l-5.2 1.7 1.7-5.2c-.5-1.1-.8-2.2-.8-3.4 0-1.4.4-2.8 1.2-4 .8-1.2 1.8-2.2 3.1-2.8 1.1-.5 2.2-.8 3.4-.8h.5c1.9.1 3.7.9 5 2.2s2.1 3.1 2.2 5v.4z"/><g class="st1"><path class="st0" d="M5.3 14.4s3.3-6.3 9.1-6.3 9.1 6.3 9.1 6.3-3.3 6.3-9.1 6.3-9.1-6.3-9.1-6.3z"/><path class="st0" d="M14.4 17.1c1.5 0 2.7-1.2 2.7-2.7 0-1.5-1.2-2.7-2.7-2.7-1.5 0-2.7 1.2-2.7 2.7 0 1.5 1.2 2.7 2.7 2.7z"/></g><g class="st2"><path class="st0" d="M50.6 5.3v18.1M55.2 8h-6.8c-.8 0-1.6.3-2.2.9-.6.6-.9 1.4-.9 2.2 0 .8.3 1.6.9 2.2.6.6 1.4.9 2.2.9h4.5c.8 0 1.6.3 2.2.9.6.6.9 1.4.9 2.2 0 .8-.3 1.6-.9 2.2-.6.6-1.4.9-2.2.9h-7.7"/></g><g class="st3"><path class="st0" d="M6.2 47.9l8.2-6.3 8.2 6.3v10c0 .5-.2.9-.5 1.3-.3.3-.8.5-1.3.5H8c-.5 0-.9-.2-1.3-.5-.3-.3-.5-.8-.5-1.3v-10z"/><path class="st0" d="M11.7 59.7v-9.1h5.4v9.1"/></g><path class="st4" d="M25.3 38.1l12.8-12.8c.5-.5 1.4-.5 1.9 0s.5 1.4 0 1.9L27.2 40c-.5.5-1.4.5-1.9 0s-.5-1.3 0-1.9z"/><path class="st4" d="M27.2 25.3L40 38.1c.5.5.5 1.4 0 1.9s-1.4.5-1.9 0L25.3 27.2c-.5-.5-.5-1.4 0-1.9s1.4-.5 1.9 0z"/></svg>